# xmcd
# Copyright (C) 1995-1998 Ti Kan
#
# Track frame offsets:
#       150
#       4468
#       21506
#       35942
#       48586
#       60333
#       75102
#       94775
#       102330
#       114766
#       126174
#       144312
#       159572
#       172864
#       186968
#       209296
#       224292
#
# Disc length: 3076 seconds
#
# Revision: 0
# Processed by: cddbd v1.4b42PL1 Copyright (c) Steve Scherf et al.
# Submitted via: CD-Transfer v1.0
#
DISCID=e30c0211
DTITLE=allpot futsch - till the end
DYEAR=2000
DGENRE=
TTITLE0=start your engine
TTITLE1=from punk till dawn
TTITLE2=hang over
TTITLE3=stupid dreams
TTITLE4=singlebar
TTITLE5=men vs nature
TTITLE6=this train sucks
TTITLE7=till the end
TTITLE8=tough time
TTITLE9=0815
TTITLE10=musiccake
TTITLE11=r. matthew
TTITLE12=about relationship
TTITLE13=ricky
TTITLE14=fun in the sun
TTITLE15=bonus track 1
TTITLE16=bonus track 2
EXTD=
EXTT0=
EXTT1=
EXTT2=
EXTT3=
EXTT4=
EXTT5=
EXTT6=
EXTT7=
EXTT8=
EXTT9=
EXTT10=
EXTT11=
EXTT12=
EXTT13=
EXTT14=
EXTT15=
EXTT16=
PLAYORDER=
